<mxfile host="Electron" modified="2023-12-10T16:20:03.110Z" agent="Mozilla/5.0 (Windows NT 10.0; Win64; x64) AppleWebKit/537.36 (KHTML, like Gecko) draw.io/22.0.3 Chrome/114.0.5735.289 Electron/25.8.4 Safari/537.36" etag="a24ZBmEEmO9THb9j0Yug" version="22.0.3" type="device">
  <diagram name="Seite-1" id="MYDDnkZYp0snbb28FhZK">
    <mxGraphModel dx="2433" dy="1098" grid="1" gridSize="10" guides="1" tooltips="1" connect="1" arrows="1" fold="1" page="1" pageScale="1" pageWidth="827" pageHeight="1169" math="0" shadow="0">
      <root>
        <mxCell id="0" />
        <mxCell id="1" parent="0" />
        <mxCell id="eeoeFO-xxEn6-hahUP_O-1" value="interactive create chessclub" style="shape=umlFrame;whiteSpace=wrap;html=1;pointerEvents=0;recursiveResize=0;container=1;collapsible=0;width=160;" vertex="1" parent="1">
          <mxGeometry x="10" y="10" width="1590" height="270" as="geometry" />
        </mxCell>
        <mxCell id="eeoeFO-xxEn6-hahUP_O-2" value="User" style="shape=umlActor;verticalLabelPosition=bottom;verticalAlign=top;html=1;" vertex="1" parent="eeoeFO-xxEn6-hahUP_O-1">
          <mxGeometry x="20" y="50" width="30" height="60" as="geometry" />
        </mxCell>
        <mxCell id="eeoeFO-xxEn6-hahUP_O-3" style="edgeStyle=orthogonalEdgeStyle;rounded=0;orthogonalLoop=1;jettySize=auto;html=1;entryX=0;entryY=0.5;entryDx=0;entryDy=0;" edge="1" parent="eeoeFO-xxEn6-hahUP_O-1" source="eeoeFO-xxEn6-hahUP_O-5" target="eeoeFO-xxEn6-hahUP_O-12">
          <mxGeometry relative="1" as="geometry" />
        </mxCell>
        <mxCell id="eeoeFO-xxEn6-hahUP_O-4" value="2: createClub(clubname:String)" style="edgeLabel;html=1;align=center;verticalAlign=middle;resizable=0;points=[];" vertex="1" connectable="0" parent="eeoeFO-xxEn6-hahUP_O-3">
          <mxGeometry x="-0.0318" y="-1" relative="1" as="geometry">
            <mxPoint as="offset" />
          </mxGeometry>
        </mxCell>
        <mxCell id="eeoeFO-xxEn6-hahUP_O-5" value="ChessClubController" style="html=1;align=center;verticalAlign=middle;dashed=0;whiteSpace=wrap;" vertex="1" parent="eeoeFO-xxEn6-hahUP_O-1">
          <mxGeometry x="243" y="50" width="160" height="70" as="geometry" />
        </mxCell>
        <mxCell id="eeoeFO-xxEn6-hahUP_O-6" style="edgeStyle=orthogonalEdgeStyle;rounded=0;orthogonalLoop=1;jettySize=auto;html=1;exitX=0.5;exitY=0.5;exitDx=0;exitDy=0;exitPerimeter=0;entryX=-0.004;entryY=0.429;entryDx=0;entryDy=0;entryPerimeter=0;" edge="1" parent="eeoeFO-xxEn6-hahUP_O-1" source="eeoeFO-xxEn6-hahUP_O-2" target="eeoeFO-xxEn6-hahUP_O-5">
          <mxGeometry relative="1" as="geometry" />
        </mxCell>
        <mxCell id="eeoeFO-xxEn6-hahUP_O-7" value="1: createClub(clubName:String)" style="edgeLabel;html=1;align=center;verticalAlign=middle;resizable=0;points=[];" vertex="1" connectable="0" parent="eeoeFO-xxEn6-hahUP_O-6">
          <mxGeometry x="-0.0255" y="-1" relative="1" as="geometry">
            <mxPoint as="offset" />
          </mxGeometry>
        </mxCell>
        <mxCell id="eeoeFO-xxEn6-hahUP_O-8" style="edgeStyle=orthogonalEdgeStyle;rounded=0;orthogonalLoop=1;jettySize=auto;html=1;entryX=0;entryY=0.5;entryDx=0;entryDy=0;" edge="1" parent="eeoeFO-xxEn6-hahUP_O-1" source="eeoeFO-xxEn6-hahUP_O-12" target="eeoeFO-xxEn6-hahUP_O-13">
          <mxGeometry relative="1" as="geometry">
            <Array as="points">
              <mxPoint x="921" y="110" />
              <mxPoint x="921" y="135" />
            </Array>
          </mxGeometry>
        </mxCell>
        <mxCell id="eeoeFO-xxEn6-hahUP_O-9" value="3.1: chessClubRepository.save(club: ChessClub)" style="edgeLabel;html=1;align=center;verticalAlign=middle;resizable=0;points=[];" vertex="1" connectable="0" parent="eeoeFO-xxEn6-hahUP_O-8">
          <mxGeometry x="0.0076" y="-2" relative="1" as="geometry">
            <mxPoint as="offset" />
          </mxGeometry>
        </mxCell>
        <mxCell id="eeoeFO-xxEn6-hahUP_O-10" style="edgeStyle=orthogonalEdgeStyle;rounded=0;orthogonalLoop=1;jettySize=auto;html=1;exitX=1;exitY=1;exitDx=0;exitDy=0;" edge="1" parent="eeoeFO-xxEn6-hahUP_O-1" source="eeoeFO-xxEn6-hahUP_O-12" target="eeoeFO-xxEn6-hahUP_O-14">
          <mxGeometry relative="1" as="geometry">
            <Array as="points">
              <mxPoint x="770" y="200" />
            </Array>
          </mxGeometry>
        </mxCell>
        <mxCell id="eeoeFO-xxEn6-hahUP_O-11" value="3.2: userRepository.save(User user, clubId: Long)" style="edgeLabel;html=1;align=center;verticalAlign=middle;resizable=0;points=[];" vertex="1" connectable="0" parent="eeoeFO-xxEn6-hahUP_O-10">
          <mxGeometry x="-0.0205" y="-1" relative="1" as="geometry">
            <mxPoint as="offset" />
          </mxGeometry>
        </mxCell>
        <mxCell id="eeoeFO-xxEn6-hahUP_O-12" value="ChessClubService" style="html=1;align=center;verticalAlign=middle;dashed=0;whiteSpace=wrap;" vertex="1" parent="eeoeFO-xxEn6-hahUP_O-1">
          <mxGeometry x="610" y="50" width="160" height="70" as="geometry" />
        </mxCell>
        <mxCell id="eeoeFO-xxEn6-hahUP_O-13" value="ChessClubRepository:&lt;br&gt;Database" style="html=1;align=center;verticalAlign=middle;dashed=0;whiteSpace=wrap;" vertex="1" parent="eeoeFO-xxEn6-hahUP_O-1">
          <mxGeometry x="1071" y="100" width="160" height="70" as="geometry" />
        </mxCell>
        <mxCell id="eeoeFO-xxEn6-hahUP_O-14" value="UserRepository:&lt;br&gt;Database" style="html=1;align=center;verticalAlign=middle;dashed=0;whiteSpace=wrap;" vertex="1" parent="eeoeFO-xxEn6-hahUP_O-1">
          <mxGeometry x="1081" y="180" width="160" height="70" as="geometry" />
        </mxCell>
        <mxCell id="eeoeFO-xxEn6-hahUP_O-15" style="edgeStyle=orthogonalEdgeStyle;rounded=0;orthogonalLoop=1;jettySize=auto;html=1;entryX=0;entryY=0.5;entryDx=0;entryDy=0;" edge="1" parent="eeoeFO-xxEn6-hahUP_O-1" source="eeoeFO-xxEn6-hahUP_O-17" target="eeoeFO-xxEn6-hahUP_O-20">
          <mxGeometry relative="1" as="geometry" />
        </mxCell>
        <mxCell id="eeoeFO-xxEn6-hahUP_O-16" value="3.4: chatRepository.save(chat)" style="edgeLabel;html=1;align=center;verticalAlign=middle;resizable=0;points=[];" vertex="1" connectable="0" parent="eeoeFO-xxEn6-hahUP_O-15">
          <mxGeometry x="0.0078" y="-2" relative="1" as="geometry">
            <mxPoint x="-1" y="-7" as="offset" />
          </mxGeometry>
        </mxCell>
        <mxCell id="eeoeFO-xxEn6-hahUP_O-17" value="ChatService" style="html=1;align=center;verticalAlign=middle;dashed=0;whiteSpace=wrap;" vertex="1" parent="eeoeFO-xxEn6-hahUP_O-1">
          <mxGeometry x="1071" y="10" width="160" height="70" as="geometry" />
        </mxCell>
        <mxCell id="eeoeFO-xxEn6-hahUP_O-18" style="edgeStyle=orthogonalEdgeStyle;rounded=0;orthogonalLoop=1;jettySize=auto;html=1;entryX=0.013;entryY=0.657;entryDx=0;entryDy=0;entryPerimeter=0;" edge="1" parent="eeoeFO-xxEn6-hahUP_O-1" source="eeoeFO-xxEn6-hahUP_O-12" target="eeoeFO-xxEn6-hahUP_O-17">
          <mxGeometry relative="1" as="geometry" />
        </mxCell>
        <mxCell id="eeoeFO-xxEn6-hahUP_O-19" value="3.3: createChessClubChat(clubName: String)" style="edgeLabel;html=1;align=center;verticalAlign=middle;resizable=0;points=[];" vertex="1" connectable="0" parent="eeoeFO-xxEn6-hahUP_O-18">
          <mxGeometry x="-0.4098" y="3" relative="1" as="geometry">
            <mxPoint x="42" y="3" as="offset" />
          </mxGeometry>
        </mxCell>
        <mxCell id="eeoeFO-xxEn6-hahUP_O-20" value="ChessClubRepository:&lt;br&gt;Database" style="html=1;align=center;verticalAlign=middle;dashed=0;whiteSpace=wrap;" vertex="1" parent="eeoeFO-xxEn6-hahUP_O-1">
          <mxGeometry x="1410" y="10" width="160" height="70" as="geometry" />
        </mxCell>
      </root>
    </mxGraphModel>
  </diagram>
</mxfile>
